<svg width="22" height="22" viewBox="0 0 22 22" fill="none" xmlns="http://www.w3.org/2000/svg">
<path d="M17.9207 0.895848L3.7816 1.10635C2.16648 1.1304 0.8718 2.46421 0.895846 4.07933L1.10635 18.2184C1.1304 19.8335 2.46421 21.1282 4.07932 21.1041L9.97711 21.0163L9.87186 13.9468L7.52837 13.9817L7.47603 10.4665L9.81952 10.4316L9.78405 8.04902C9.75519 6.1106 11.3085 4.5103 13.247 4.48144L16.8012 4.42853L16.8536 7.94376L13.2993 7.99668L13.3348 10.3792L16.8891 10.3263L16.3555 13.8503L13.3871 13.8945L13.4923 20.964L18.2184 20.8936C19.8335 20.8696 21.1282 19.5358 21.1041 17.9207L20.8936 3.7816C20.8696 2.16648 19.5358 0.871802 17.9207 0.895848Z" fill="black"/>
</svg>
