<svg width="30px" height="30px" viewBox="0 0 20 18" fill="none" xmlns="http://www.w3.org/2000/svg">
<path d="M19.5536 10.7244C19.6504 5.20026 15.3678 0.649535 9.98924 0.55529C5.68523 0.479874 1.98517 3.28048 0.628749 7.22982C0.528309 7.72814 0.826568 7.91673 1.08509 7.92126C1.31635 7.92531 1.92935 7.92771 2.74133 7.93778C2.20282 5.14625 4.107 4.59285 4.107 4.59285C5.23908 4.15762 5.55125 3.50549 5.55125 3.50549C6.17088 2.61038 6.1414 3.58584 6.1414 3.58584C6.05608 4.58867 5.11104 5.09969 5.11104 5.09969C3.60623 5.96513 4.01116 7.42161 4.24976 7.99754C4.87838 8.09857 5.30253 8.36355 5.54118 8.6536C5.82374 6.43738 6.70215 4.11825 10.4338 4.18363C11.4968 4.20226 12.3589 4.60493 13.029 5.25843C13.2772 5.15026 14.2734 4.83017 15.6053 5.39109C15.6053 5.39109 15.8516 6.23304 14.5585 8.12317C14.7609 8.92684 14.8534 9.77859 14.8435 10.6285C14.8236 11.4783 14.7014 12.3263 14.471 13.1224C15.6972 15.0442 15.4216 15.877 15.4216 15.877C14.0708 16.3909 13.0864 16.0361 12.842 15.9318C12.1495 16.5573 11.2738 16.9295 10.2108 16.9108C6.46923 16.8453 5.68671 14.4937 5.48617 12.2649C5.18765 12.6097 4.58479 12.9242 3.67212 12.9082C2.36878 12.8853 1.32169 12.8545 1.00535 12.8489C0.750137 12.8445 0.442295 13.0141 0.530778 13.5282C1.73925 17.5509 5.34144 20.4769 9.63885 20.5522C15.0174 20.6465 19.4569 16.2461 19.5536 10.7244Z" fill="#212121"/>
</svg>
